<svg data-v-423bf9ae="" xmlns="http://www.w3.org/2000/svg" viewBox="0 0 142.54473690247704 60" class="font"><!----><!----><!----><g data-v-423bf9ae="" id="4fdfdc8f-ee12-490d-8af9-5a37f79783e8" fill="black" transform="matrix(5.96421480178833,0,0,5.96421480178833,-6.500991344451904,-24.274356842041016)"><path d="M6.08 9.83L6.08 9.83Q6.16 10.42 6.16 11.05L6.16 11.05L6.16 11.05Q6.16 11.69 6.08 12.14L6.08 12.14L6.08 12.14Q5.88 13.05 5.22 13.58L5.22 13.58L5.22 13.58Q4.56 14.11 3.61 14.11L3.61 14.11L3.61 14.11Q2.67 14.11 2.04 13.61L2.04 13.61L2.04 13.61Q1.40 13.10 1.19 12.28L1.19 12.28L1.19 12.28Q1.11 11.87 1.09 11.75L1.09 11.75L1.09 11.75Q1.09 11.63 1.20 11.63L1.20 11.63L1.41 11.63L1.41 11.63Q1.53 11.63 1.53 11.75L1.53 11.75L1.53 11.75Q1.53 11.80 1.53 11.89L1.53 11.89L1.53 11.89Q1.54 11.97 1.57 12.08L1.57 12.08L1.57 12.08Q1.72 12.82 2.26 13.27L2.26 13.27L2.26 13.27Q2.80 13.72 3.61 13.72L3.61 13.72L3.61 13.72Q4.44 13.72 4.99 13.24L4.99 13.24L4.99 13.24Q5.54 12.77 5.68 11.94L5.68 11.94L5.68 11.94Q5.74 11.65 5.74 11.05L5.74 11.05L5.74 11.05Q5.74 10.58 5.68 10.02L5.68 10.02L5.68 10.02Q5.59 9.21 5.03 8.79L5.03 8.79L5.03 8.79Q4.47 8.37 3.61 8.37L3.61 8.37L3.61 8.37Q2.86 8.37 2.30 8.71L2.30 8.71L2.30 8.71Q1.74 9.04 1.55 9.63L1.55 9.63L1.55 9.63Q1.51 9.73 1.43 9.73L1.43 9.73L1.20 9.73L1.20 9.73Q1.09 9.73 1.09 9.62L1.09 9.62L1.09 4.31L1.09 4.31Q1.09 4.20 1.20 4.20L1.20 4.20L5.61 4.20L5.61 4.20Q5.73 4.20 5.73 4.31L5.73 4.31L5.73 4.48L5.73 4.48Q5.73 4.59 5.61 4.59L5.61 4.59L1.55 4.59L1.55 4.59Q1.51 4.59 1.51 4.63L1.51 4.63L1.51 8.85L1.51 8.85Q1.51 8.86 1.53 8.87L1.53 8.87L1.53 8.87Q1.55 8.88 1.57 8.86L1.57 8.86L1.57 8.86Q1.89 8.46 2.44 8.22L2.44 8.22L2.44 8.22Q2.98 7.98 3.63 7.98L3.63 7.98L3.63 7.98Q4.61 7.98 5.27 8.46L5.27 8.46L5.27 8.46Q5.94 8.93 6.08 9.83L6.08 9.83ZM9.23 4.24L9.23 4.24Q9.28 4.20 9.37 4.20L9.37 4.20L9.60 4.20L9.60 4.20Q9.72 4.20 9.72 4.31L9.72 4.31L9.72 13.89L9.72 13.89Q9.72 14 9.60 14L9.60 14L9.41 14L9.41 14Q9.30 14 9.30 13.89L9.30 13.89L9.30 4.79L9.30 4.79Q9.30 4.77 9.28 4.76L9.28 4.76L9.28 4.76Q9.25 4.75 9.24 4.76L9.24 4.76L7.55 5.61L7.55 5.61Q7.53 5.63 7.49 5.63L7.49 5.63L7.49 5.63Q7.42 5.63 7.42 5.53L7.42 5.53L7.42 5.40L7.42 5.40Q7.42 5.32 7.49 5.28L7.49 5.28L9.23 4.24ZM17.40 9.83L17.40 9.83Q17.49 10.42 17.49 11.05L17.49 11.05L17.49 11.05Q17.49 11.69 17.40 12.14L17.40 12.14L17.40 12.14Q17.21 13.05 16.55 13.58L16.55 13.58L16.55 13.58Q15.89 14.11 14.94 14.11L14.94 14.11L14.94 14.11Q14 14.11 13.36 13.61L13.36 13.61L13.36 13.61Q12.73 13.10 12.52 12.28L12.52 12.28L12.52 12.28Q12.43 11.87 12.42 11.75L12.42 11.75L12.42 11.75Q12.42 11.63 12.53 11.63L12.53 11.63L12.74 11.63L12.74 11.63Q12.85 11.63 12.85 11.75L12.85 11.75L12.85 11.75Q12.85 11.80 12.86 11.89L12.86 11.89L12.86 11.89Q12.87 11.97 12.89 12.08L12.89 12.08L12.89 12.08Q13.05 12.82 13.59 13.27L13.59 13.27L13.59 13.27Q14.13 13.72 14.94 13.72L14.94 13.72L14.94 13.72Q15.76 13.72 16.32 13.24L16.32 13.24L16.32 13.24Q16.87 12.77 17.01 11.94L17.01 11.94L17.01 11.94Q17.07 11.65 17.07 11.05L17.07 11.05L17.07 11.05Q17.07 10.58 17.01 10.02L17.01 10.02L17.01 10.02Q16.91 9.21 16.35 8.79L16.35 8.79L16.35 8.79Q15.79 8.37 14.94 8.37L14.94 8.37L14.94 8.37Q14.18 8.37 13.62 8.71L13.62 8.71L13.62 8.71Q13.06 9.04 12.88 9.63L12.88 9.63L12.88 9.63Q12.84 9.73 12.75 9.73L12.75 9.73L12.53 9.73L12.53 9.73Q12.42 9.73 12.42 9.62L12.42 9.62L12.42 4.31L12.42 4.31Q12.42 4.20 12.53 4.20L12.53 4.20L16.94 4.20L16.94 4.20Q17.05 4.20 17.05 4.31L17.05 4.31L17.05 4.48L17.05 4.48Q17.05 4.59 16.94 4.59L16.94 4.59L12.88 4.59L12.88 4.59Q12.84 4.59 12.84 4.63L12.84 4.63L12.84 8.85L12.84 8.85Q12.84 8.86 12.86 8.87L12.86 8.87L12.86 8.87Q12.88 8.88 12.89 8.86L12.89 8.86L12.89 8.86Q13.22 8.46 13.76 8.22L13.76 8.22L13.76 8.22Q14.31 7.98 14.95 7.98L14.95 7.98L14.95 7.98Q15.93 7.98 16.60 8.46L16.60 8.46L16.60 8.46Q17.26 8.93 17.40 9.83L17.40 9.83ZM22.23 14.13L22.23 14.13Q21 14.13 20.26 13.41L20.26 13.41L20.26 13.41Q19.52 12.70 19.52 11.52L19.52 11.52L19.52 6.68L19.52 6.68Q19.52 5.50 20.26 4.79L20.26 4.79L20.26 4.79Q21 4.07 22.23 4.07L22.23 4.07L22.23 4.07Q23.48 4.07 24.23 4.79L24.23 4.79L24.23 4.79Q24.99 5.50 24.99 6.68L24.99 6.68L24.99 11.52L24.99 11.52Q24.99 12.70 24.23 13.41L24.23 13.41L24.23 13.41Q23.48 14.13 22.23 14.13L22.23 14.13ZM22.23 13.73L22.23 13.73Q23.30 13.73 23.93 13.14L23.93 13.14L23.93 13.14Q24.57 12.54 24.57 11.55L24.57 11.55L24.57 6.65L24.57 6.65Q24.57 5.66 23.93 5.06L23.93 5.06L23.93 5.06Q23.30 4.47 22.23 4.47L22.23 4.47L22.23 4.47Q21.20 4.47 20.57 5.07L20.57 5.07L20.57 5.07Q19.94 5.67 19.94 6.65L19.94 6.65L19.94 11.55L19.94 11.55Q19.94 12.53 20.57 13.13L20.57 13.13L20.57 13.13Q21.20 13.73 22.23 13.73L22.23 13.73Z"></path></g><!----><!----></svg>